# xmcd
#
# Track frame offsets: 
#        150
#        15250
#        40290
#        61145
#        83395
#        107295
#        125000
#        142117
#        166210
#        187075
#        205205
#        227482
#        247620
#        272765
#
# Disc length: 3978 seconds
#
# Revision: 3
# Processed by: cddbd v1.5.2PL0 Copyright (c) Steve Scherf et al.
# Submitted via: ExactAudioCopy v0.99pb4
#
DISCID=ab0f880e
DTITLE=Various Artist - Wind Riders
DYEAR=2005
DGENRE=Native American
TTITLE0=Alice Gomez - Civilizations Lost
TTITLE1=the Mesa Music Consort - Council of the Flocks
TTITLE2=Eric Casillas - Warrior Chant
TTITLE3=Marilyn Rife - Flute Song
TTITLE4=Ben Tavera King - Spirit Rock
TTITLE5=The Mesa Music Consort - Many Feathers
TTITLE6=Alice Gomez - Mystic Temple
TTITLE7=The Native Flute Ensemble - Creatures of Prophecy
TTITLE8=Eric Casillas - Renewal Song
TTITLE9=Alice Gomez - Forgotten Empires
TTITLE10=The Native Flue Ensemble - Buffalo Soldiers
TTITLE11=Ben Tavera King - Secret Shamen
TTITLE12=Mesa Music Consort - Winged Professional
TTITLE13=Ben Tavera King - Twilight Ritual
EXTD=YEAR: 2005  ID3G:  64
EXTT0=
EXTT1=
EXTT2=
EXTT3=
EXTT4=
EXTT5=
EXTT6=
EXTT7=
EXTT8=
EXTT9=
EXTT10=
EXTT11=
EXTT12=
EXTT13=
PLAYORDER=
